<svg width="512" height="512" viewBox="0 0 512 512" fill="none" xmlns="http://www.w3.org/2000/svg">
<path d="M347.92 329.082H347.908C342.651 324.961 336.163 322.721 329.483 322.722H344.022C374.3 322.722 402.146 297.807 399.069 267.704L391.154 160.425C384.354 68.505 319.43 -24.91 244.654 28.725C147.255 -14.153 126.268 89.9 120.846 162.154L112.931 267.7C110.674 297.862 137.7 322.718 167.978 322.718H182.517C175.837 322.717 169.349 324.957 164.092 329.078H164.08C133.215 336.758 69.4041 349.801 69.4041 391.863V499H442.6V391.867C442.6 349.805 378.785 336.762 347.92 329.082Z" fill="#FFDDAB"/>
<path d="M399.069 267.7L391.154 160.421C384.354 68.501 319.43 -24.914 244.654 28.721C147.255 -14.153 126.268 89.9 120.846 162.154L112.931 267.7C110.674 297.862 137.7 322.718 167.978 322.718H218.364V297.818C192.111 280.718 174.075 247.556 174.075 216.05V182.672C174.075 140.816 213.762 87.85 256 87.85C267.607 131.172 287.8 154.24 337.925 183.2V216.058C337.925 247.569 319.897 280.74 293.636 297.835V322.722H344.022C374.3 322.722 402.146 297.807 399.069 267.7Z" fill="#7C6359"/>
<path d="M169.385 394.036C160.328 385.243 152.472 364.08 152.472 352.766C152.478 348.194 153.528 343.684 155.541 339.579C157.555 335.475 160.48 331.884 164.092 329.082H164.08C133.215 336.762 69.4041 349.805 69.4041 391.867V499H185.004L150.45 431.906L169.385 394.036Z" fill="#484868"/>
<path d="M347.92 329.082H347.908C351.52 331.884 354.445 335.475 356.459 339.579C358.472 343.684 359.522 348.194 359.528 352.766C359.528 364.08 351.672 385.243 342.615 394.036L361.55 431.906L326.992 499H442.6V391.867C442.6 349.805 378.785 336.762 347.92 329.082Z" fill="#484868"/>
<path d="M395 342.546C405.552 351.955 412.612 363.967 412.612 379.559V499H442.6V391.867C442.6 366.77 419.878 352.006 395 342.546Z" fill="#3D3D54"/>
<path d="M293.636 322.722V499H326.992L361.55 431.906L342.615 394.036C351.672 385.243 359.528 364.08 359.528 352.766C359.507 344.804 356.335 337.174 350.705 331.544C345.075 325.914 337.445 322.743 329.483 322.722H293.636Z" fill="#60607C"/>
<path d="M218.364 322.722V499H185.008L150.45 431.906L169.385 394.036C160.328 385.243 152.472 364.08 152.472 352.766C152.493 344.804 155.665 337.174 161.295 331.544C166.925 325.914 174.555 322.743 182.517 322.722H218.364Z" fill="#60607C"/>
<path d="M293.636 356.576C269.466 366.19 242.534 366.19 218.364 356.576V499H293.636V356.576Z" fill="#EAE8E8"/>
<path d="M312.472 167.164C313.554 172.263 314.113 177.459 314.142 182.672V216.058C314.142 257.072 283.579 300.899 244.109 308.425C248.028 309.177 252.009 309.558 256 309.561C301.081 309.561 337.925 261.109 337.925 216.061V183.2C328.409 177.7 319.977 172.416 312.472 167.164Z" fill="#F9CE95"/>
<path d="M399.069 267.7L391.154 160.421C385.083 78.356 332.677 -4.89302 268.3 16.379C313.138 31.637 346.092 96.385 350.83 160.425L358.741 267.7C361.819 297.8 333.973 322.718 303.694 322.718H344.022C374.3 322.722 402.146 297.807 399.069 267.7Z" fill="#604C42"/>
</svg>
