<svg width="512" height="512" viewBox="0 0 512 512" fill="none" xmlns="http://www.w3.org/2000/svg">
<path d="M345.42 488.176V306.824L316.004 293.044L308.02 250.64H203.98L195.996 293.044L167.528 306.38V488.176H345.42Z" fill="#E2B48A"/>
<path d="M467.84 508L460.24 410.856C459.003 395.023 453.59 379.801 444.554 366.741C435.518 353.681 423.181 343.251 408.8 336.512L327.16 298.264V321.888H317.856V334.288H180.9V300.116L103.2 336.512C88.8169 343.249 76.4773 353.679 67.4388 366.739C58.4003 379.799 52.986 395.022 51.7479 410.856L44.1599 508H467.84Z" fill="#BAC2D3"/>
<path d="M268.148 334.56H229.044L221.596 351.924L244.04 380.488L230.992 443.12L255.98 497.26L283.976 439.028L272.248 379.32L290.02 350.1L268.148 334.56Z" fill="#DA2A47"/>
<path d="M460.244 410.856C459.007 395.023 453.593 379.8 444.556 366.74C435.519 353.681 423.181 343.25 408.8 336.512L334.4 301.648C328.332 336.2 313.924 367.864 298.268 399.048C291.008 413.512 284.204 427.924 277.8 442.756C274.228 450.976 256 499.004 256 499.004C256 499.004 226.448 425.444 221.068 411.5C213.776 392.588 208.164 372.908 198.5 355.016C196.844 351.948 195.096 348.932 193.3 345.936C176.86 339.48 168.408 325.536 168.72 305.812L103.2 336.512C88.8169 343.249 76.4773 353.679 67.4388 366.739C58.4003 379.799 52.986 395.022 51.7479 410.856L44.1599 508H467.84L460.244 410.856Z" fill="#707583"/>
<path d="M460.244 410.856C459.007 395.023 453.593 379.8 444.556 366.74C435.519 353.681 423.181 343.25 408.8 336.512L334.4 301.648C328.332 336.2 313.924 367.864 298.268 399.048C291.008 413.512 284.204 427.924 277.8 442.756C274.228 450.976 256 499.004 256 499.004C256 499.004 226.448 425.444 221.068 411.5C213.776 392.588 208.164 372.908 198.5 355.016C196.844 351.948 195.096 348.932 193.3 345.936C176.86 339.48 168.408 325.536 168.72 305.812L103.2 336.512C88.8169 343.249 76.4773 353.679 67.4388 366.739C58.4003 379.799 52.986 395.022 51.7479 410.856L44.1599 508H467.84L460.244 410.856Z" fill="#384868"/>
<path d="M467.84 508H410.48L402.88 410.84C401.63 395.008 396.208 379.791 387.165 366.736C378.122 353.681 365.782 343.255 351.4 336.52L328.72 325.88C331.032 317.907 332.915 309.815 334.36 301.64L408.8 336.52C423.177 343.257 435.511 353.684 444.547 366.74C453.583 379.795 458.998 395.011 460.24 410.84L467.84 508Z" fill="#2F3A5A"/>
<path d="M369.397 195.874C373.643 177.735 368.857 161.105 358.707 158.729C348.558 156.353 336.888 169.132 332.642 187.27C328.396 205.409 333.181 222.04 343.331 224.416C353.481 226.791 365.151 214.013 369.397 195.874Z" fill="#E2B48A"/>
<path d="M168.053 224.56C178.202 222.185 182.988 205.554 178.742 187.415C174.496 169.276 162.826 156.498 152.677 158.874C142.527 161.25 137.741 177.88 141.987 196.019C146.233 214.158 157.903 226.936 168.053 224.56Z" fill="#E2B48A"/>
<path d="M255.612 286.964C308.253 286.964 350.928 228.147 350.928 155.592C350.928 83.0372 308.253 24.22 255.612 24.22C202.97 24.22 160.296 83.0372 160.296 155.592C160.296 228.147 202.97 286.964 255.612 286.964Z" fill="#F0C191"/>
<path d="M344.948 200.912C344.948 200.912 378.608 140.772 371.316 93.076C364.024 45.38 331.892 30.324 312.8 30.324C312.8 30.324 287.032 -7.832 223.356 7.732C159.68 23.296 134.076 93.22 146.124 137.332C158.172 181.444 166.204 201.708 166.204 201.708C166.204 201.708 158.172 145.308 167.208 114.168C176.244 83.028 203.356 58.44 213.9 66.968C224.444 75.496 291.716 72.668 302.76 53.768C317.269 64.3999 326.98 80.3423 329.772 98.112C333.372 126.728 349.448 144.3 347.944 164.88C346.44 185.46 344.948 200.912 344.948 200.912Z" fill="#2F3A5A"/>
<path d="M313.26 278.332L256 334.284L307.112 369.408L331.032 300.004L313.26 278.332Z" fill="#D9E2E9"/>
<path d="M180.968 300.004L206.88 367.788L256 334.284L198.74 278.332L180.968 300.004Z" fill="#D9E2E9"/>
<path d="M345.936 307.064L313.26 278.332L313.192 278.264C313.192 278.264 312.596 364.104 255.992 497.26C199.376 364.104 198.792 278.264 198.792 278.264L198.724 278.332L166.052 307.064L160.296 355.636L187.388 351.304L167.072 382.104C178.852 410.8 256 500.4 256 500.4C268.14 486.996 334.968 409.628 345.372 384.268L324.592 351.304L354.916 352.168L345.936 307.064Z" fill="#43567C"/>
</svg>
